<?xml version="1.0" encoding="UTF-8"?>
<!DOCTYPE svg PUBLIC "-//W3C//DTD SVG 1.1//EN" "http://www.w3.org/Graphics/SVG/1.1/DTD/svg11.dtd">
<svg xmlns="http://www.w3.org/2000/svg" version="1.1" width="512px" height="512px" style="shape-rendering:geometricPrecision; text-rendering:geometricPrecision; image-rendering:optimizeQuality; fill-rule:evenodd; clip-rule:evenodd" xmlns:xlink="http://www.w3.org/1999/xlink">
<g><path style="opacity:0.976" fill="#010101" d="M 62.5,-0.5 C 108.167,-0.5 153.833,-0.5 199.5,-0.5C 199.987,0.473444 200.487,1.47344 201,2.5C 201.167,8.83333 201.333,15.1667 201.5,21.5C 201.631,28.6012 201.131,35.6012 200,42.5C 198.352,43.717 196.519,44.5503 194.5,45C 186.173,45.4997 177.84,45.6664 169.5,45.5C 169.5,58.8333 169.5,72.1667 169.5,85.5C 186.837,85.3334 204.17,85.5001 221.5,86C 223,86.8333 224.167,88 225,89.5C 225.963,103.261 225.63,116.928 224,130.5C 223.097,131.701 221.931,132.535 220.5,133C 214.175,133.5 207.842,133.666 201.5,133.5C 201.667,203.834 201.5,274.167 201,344.5C 196.618,357.71 187.452,364.71 173.5,365.5C 168.697,380.072 163.197,394.405 157,408.5C 154.772,410.113 152.272,410.78 149.5,410.5C 149.667,435.836 149.5,461.169 149,486.5C 147.969,489.539 146.135,492.039 143.5,494C 137.653,498.091 131.987,502.424 126.5,507C 122.702,510.186 118.368,511.186 113.5,510C 111.513,508.681 110.346,506.848 110,504.5C 109.5,473.168 109.333,441.835 109.5,410.5C 105.618,409.789 103.118,407.456 102,403.5C 97.1369,391.244 92.4702,378.911 88,366.5C 72.2397,364.739 62.9064,356.073 60,340.5C 59.3333,290.167 59.3333,239.833 60,189.5C 61.2565,185.954 63.7565,183.954 67.5,183.5C 70.5867,184.053 73.0867,185.72 75,188.5C 75.4998,199.161 75.6665,209.828 75.5,220.5C 81.1667,220.5 86.8333,220.5 92.5,220.5C 93.4981,191.338 93.8314,162.005 93.5,132.5C 87.31,132.177 81.31,132.51 75.5,133.5C 75.6665,143.506 75.4998,153.506 75,163.5C 73.4583,166.892 70.9583,168.892 67.5,169.5C 63.3635,169.518 60.8635,167.518 60,163.5C 59.5002,153.506 59.3335,143.506 59.5,133.5C 53.4908,133.666 47.4908,133.499 41.5,133C 39.714,132.215 38.214,131.049 37,129.5C 36.3333,115.833 36.3333,102.167 37,88.5C 37.8333,87.6667 38.6667,86.8333 39.5,86C 57.1635,85.5001 74.8302,85.3334 92.5,85.5C 92.5,72.1667 92.5,58.8333 92.5,45.5C 82.767,45.8909 73.1003,45.3909 63.5,44C 62.6667,43.1667 61.8333,42.3333 61,41.5C 59.3731,28.9289 59.0398,16.2623 60,3.5C 60.6622,2.01608 61.4955,0.682751 62.5,-0.5 Z"/></g>
<g><path style="opacity:1" fill="#dfe0df" d="M 166.5,13.5 C 166.5,18.8333 166.5,24.1667 166.5,29.5C 136.167,29.5 105.833,29.5 75.5,29.5C 75.5,24.1667 75.5,18.8333 75.5,13.5C 105.833,13.5 136.167,13.5 166.5,13.5 Z"/></g>
<g><path style="opacity:1" fill="#c9c9c9" d="M 166.5,13.5 C 173.167,13.5 179.833,13.5 186.5,13.5C 186.5,18.8333 186.5,24.1667 186.5,29.5C 179.833,29.5 173.167,29.5 166.5,29.5C 166.5,24.1667 166.5,18.8333 166.5,13.5 Z"/></g>
<g><path style="opacity:1" fill="#9d9d9d" d="M 134.5,44.5 C 134.5,58.1667 134.5,71.8333 134.5,85.5C 125.5,85.5 116.5,85.5 107.5,85.5C 107.5,71.8333 107.5,58.1667 107.5,44.5C 116.5,44.5 125.5,44.5 134.5,44.5 Z"/></g>
<g><path style="opacity:1" fill="#8d8d8d" d="M 134.5,44.5 C 140.833,44.5 147.167,44.5 153.5,44.5C 153.5,58.1667 153.5,71.8333 153.5,85.5C 147.167,85.5 140.833,85.5 134.5,85.5C 134.5,71.8333 134.5,58.1667 134.5,44.5 Z"/></g>
<g><path style="opacity:0.982" fill="#010101" d="M 288.5,78.5 C 342.559,78.0128 396.559,78.5128 450.5,80C 454.788,82.2917 457.622,85.7917 459,90.5C 459.667,107.833 459.667,125.167 459,142.5C 457.257,147.91 453.757,151.744 448.5,154C 443.264,155.339 437.93,155.839 432.5,155.5C 432.5,165.5 432.5,175.5 432.5,185.5C 456.8,186.968 471.3,199.635 476,223.5C 476.667,311.5 476.667,399.5 476,487.5C 473.391,498.909 466.557,506.409 455.5,510C 397.167,510.667 338.833,510.667 280.5,510C 270.235,506.736 263.735,499.902 261,489.5C 260.333,399.833 260.333,310.167 261,220.5C 266.957,198.39 281.457,186.723 304.5,185.5C 304.5,175.5 304.5,165.5 304.5,155.5C 295.659,156.994 287.826,154.994 281,149.5C 278.854,146.874 277.521,143.874 277,140.5C 276.333,124.833 276.333,109.167 277,93.5C 278.427,86.5823 282.261,81.5823 288.5,78.5 Z"/></g>
<g><path style="opacity:1" fill="#484848" d="M 424.5,93.5 C 424.5,108.833 424.5,124.167 424.5,139.5C 380.5,139.5 336.5,139.5 292.5,139.5C 292.176,124.255 292.509,109.089 293.5,94C 337.165,93.5 380.832,93.3333 424.5,93.5 Z"/></g>
<g><path style="opacity:1" fill="#343434" d="M 424.5,93.5 C 430.509,93.3338 436.509,93.5005 442.5,94C 443,94.5 443.5,95 444,95.5C 444.667,109.833 444.667,124.167 444,138.5C 437.59,139.478 431.09,139.811 424.5,139.5C 424.5,124.167 424.5,108.833 424.5,93.5 Z"/></g>
<g><path style="opacity:1" fill="#dfdfdf" d="M 190.5,100.5 C 190.5,106.167 190.5,111.833 190.5,117.5C 144.167,117.5 97.8333,117.5 51.5,117.5C 51.5,111.833 51.5,106.167 51.5,100.5C 97.8333,100.5 144.167,100.5 190.5,100.5 Z"/></g>
<g><path style="opacity:1" fill="#cccccc" d="M 190.5,100.5 C 196.833,100.5 203.167,100.5 209.5,100.5C 209.5,106.167 209.5,111.833 209.5,117.5C 203.167,117.5 196.833,117.5 190.5,117.5C 190.5,111.833 190.5,106.167 190.5,100.5 Z"/></g>
<g><path style="opacity:1" fill="#4c4c4c" d="M 209.5,100.5 C 210.49,106.31 210.823,112.31 210.5,118.5C 157.331,118.832 104.331,118.499 51.5,117.5C 97.8333,117.5 144.167,117.5 190.5,117.5C 196.833,117.5 203.167,117.5 209.5,117.5C 209.5,111.833 209.5,106.167 209.5,100.5 Z"/></g>
<g><path style="opacity:1" fill="#cdcdcd" d="M 75.5,133.5 C 81.1667,133.5 86.8333,133.5 92.5,133.5C 92.5,162.5 92.5,191.5 92.5,220.5C 86.8333,220.5 81.1667,220.5 75.5,220.5C 75.6665,209.828 75.4998,199.161 75,188.5C 73.0867,185.72 70.5867,184.053 67.5,183.5C 67.5,178.833 67.5,174.167 67.5,169.5C 70.9583,168.892 73.4583,166.892 75,163.5C 75.4998,153.506 75.6665,143.506 75.5,133.5 Z"/></g>
<g><path style="opacity:1" fill="#4e4e4e" d="M 75.5,133.5 C 81.31,132.51 87.31,132.177 93.5,132.5C 93.8314,162.005 93.4981,191.338 92.5,220.5C 92.5,191.5 92.5,162.5 92.5,133.5C 86.8333,133.5 81.1667,133.5 75.5,133.5 Z"/></g>
<g><path style="opacity:1" fill="#666666" d="M 153.5,133.5 C 147.167,133.5 140.833,133.5 134.5,133.5C 125.833,133.5 117.167,133.5 108.5,133.5C 108.5,162.167 108.5,190.833 108.5,219.5C 117.167,219.5 125.833,219.5 134.5,219.5C 140.833,219.5 147.167,219.5 153.5,219.5C 138.342,220.496 123.009,220.83 107.5,220.5C 107.5,191.167 107.5,161.833 107.5,132.5C 123.009,132.17 138.342,132.504 153.5,133.5 Z"/></g>
<g><path style="opacity:1" fill="#9f9f9f" d="M 134.5,133.5 C 134.5,162.167 134.5,190.833 134.5,219.5C 125.833,219.5 117.167,219.5 108.5,219.5C 108.5,190.833 108.5,162.167 108.5,133.5C 117.167,133.5 125.833,133.5 134.5,133.5 Z"/></g>
<g><path style="opacity:1" fill="#8d8e8d" d="M 134.5,133.5 C 140.833,133.5 147.167,133.5 153.5,133.5C 153.5,162.167 153.5,190.833 153.5,219.5C 147.167,219.5 140.833,219.5 134.5,219.5C 134.5,190.833 134.5,162.167 134.5,133.5 Z"/></g>
<g><path style="opacity:1" fill="#777777" d="M 168.5,132.5 C 174.5,132.5 180.5,132.5 186.5,132.5C 186.5,161.833 186.5,191.167 186.5,220.5C 180.5,220.5 174.5,220.5 168.5,220.5C 168.5,191.167 168.5,161.833 168.5,132.5 Z"/></g>
<g><path style="opacity:1" fill="#9fa09f" d="M 169.5,133.5 C 174.833,133.5 180.167,133.5 185.5,133.5C 185.5,162.167 185.5,190.833 185.5,219.5C 180.167,219.5 174.833,219.5 169.5,219.5C 169.5,190.833 169.5,162.167 169.5,133.5 Z"/></g>
<g><path style="opacity:1" fill="#5c5c5c" d="M 319.5,155.5 C 351.996,154.502 384.662,154.168 417.5,154.5C 417.5,165.167 417.5,175.833 417.5,186.5C 384.662,186.832 351.996,186.498 319.5,185.5C 345.5,185.5 371.5,185.5 397.5,185.5C 403.833,185.5 410.167,185.5 416.5,185.5C 416.5,175.5 416.5,165.5 416.5,155.5C 410.167,155.5 403.833,155.5 397.5,155.5C 371.5,155.5 345.5,155.5 319.5,155.5 Z"/></g>
<g><path style="opacity:1" fill="#9f9f9f" d="M 319.5,155.5 C 345.5,155.5 371.5,155.5 397.5,155.5C 397.5,165.5 397.5,175.5 397.5,185.5C 371.5,185.5 345.5,185.5 319.5,185.5C 319.5,175.5 319.5,165.5 319.5,155.5 Z"/></g>
<g><path style="opacity:1" fill="#8d8e8d" d="M 397.5,155.5 C 403.833,155.5 410.167,155.5 416.5,155.5C 416.5,165.5 416.5,175.5 416.5,185.5C 410.167,185.5 403.833,185.5 397.5,185.5C 397.5,175.5 397.5,165.5 397.5,155.5 Z"/></g>
<g><path style="opacity:1" fill="#dfdfdf" d="M 428.5,201.5 C 439.241,211.366 443.575,223.699 441.5,238.5C 407.663,238.168 373.996,238.502 340.5,239.5C 337.054,240.612 335.054,242.945 334.5,246.5C 329.5,246.5 324.5,246.5 319.5,246.5C 318.946,242.945 316.946,240.612 313.5,239.5C 301.345,238.505 289.011,238.171 276.5,238.5C 276.5,233.5 276.5,228.5 276.5,223.5C 279.064,213.097 285.397,205.931 295.5,202C 339.832,201.5 384.165,201.333 428.5,201.5 Z"/></g>
<g><path style="opacity:1" fill="#c2c2c2" d="M 428.5,201.5 C 453.114,202.131 463.781,214.797 460.5,239.5C 420.5,239.5 380.5,239.5 340.5,239.5C 373.996,238.502 407.663,238.168 441.5,238.5C 443.575,223.699 439.241,211.366 428.5,201.5 Z"/></g>
<g><path style="opacity:1" fill="#6ad9fb" d="M 166.5,235.5 C 166.5,244.833 166.5,254.167 166.5,263.5C 159.611,261.935 155.278,264.435 153.5,271C 155.278,277.565 159.611,280.065 166.5,278.5C 166.5,287.833 166.5,297.167 166.5,306.5C 161.26,305.538 157.093,307.205 154,311.5C 152.98,316.463 154.813,319.797 159.5,321.5C 161.607,322.468 163.941,322.802 166.5,322.5C 166.666,328.842 166.5,335.175 166,341.5C 165.625,344 164.792,346.333 163.5,348.5C 137.175,349.5 110.842,349.833 84.5,349.5C 79.8145,348.313 76.9811,345.313 76,340.5C 75.5,305.502 75.3333,270.502 75.5,235.5C 105.833,235.5 136.167,235.5 166.5,235.5 Z"/></g>
<g><path style="opacity:1" fill="#1cc5e2" d="M 166.5,235.5 C 173.167,235.5 179.833,235.5 186.5,235.5C 186.5,244.833 186.5,254.167 186.5,263.5C 179.833,263.5 173.167,263.5 166.5,263.5C 166.5,254.167 166.5,244.833 166.5,235.5 Z"/></g>
<g><path style="opacity:1" fill="#969696" d="M 276.5,223.5 C 276.5,228.5 276.5,233.5 276.5,238.5C 289.011,238.171 301.345,238.505 313.5,239.5C 300.833,239.5 288.167,239.5 275.5,239.5C 275.179,233.974 275.512,228.64 276.5,223.5 Z"/></g>
<g><path style="opacity:1" fill="#6ad9fb" d="M 319.5,246.5 C 324.5,246.5 329.5,246.5 334.5,246.5C 335.043,249.754 336.71,252.254 339.5,254C 373.498,254.5 407.498,254.667 441.5,254.5C 441.5,263.5 441.5,272.5 441.5,281.5C 386.5,281.5 331.5,281.5 276.5,281.5C 276.5,272.5 276.5,263.5 276.5,254.5C 289.344,254.829 302.011,254.495 314.5,253.5C 317.858,252.473 319.525,250.14 319.5,246.5 Z"/></g>
<g><path style="opacity:1" fill="#1cc4e1" d="M 166.5,278.5 C 173.167,278.5 179.833,278.5 186.5,278.5C 186.5,287.833 186.5,297.167 186.5,306.5C 179.833,306.5 173.167,306.5 166.5,306.5C 166.5,297.167 166.5,287.833 166.5,278.5 Z"/></g>
<g><path style="opacity:1" fill="#326e7f" d="M 314.5,253.5 C 302.011,254.495 289.344,254.829 276.5,254.5C 276.5,263.5 276.5,272.5 276.5,281.5C 331.5,281.5 386.5,281.5 441.5,281.5C 447.833,281.5 454.167,281.5 460.5,281.5C 460.5,272.5 460.5,263.5 460.5,254.5C 461.494,263.652 461.827,272.985 461.5,282.5C 399.5,282.5 337.5,282.5 275.5,282.5C 275.5,272.833 275.5,263.167 275.5,253.5C 288.5,253.5 301.5,253.5 314.5,253.5 Z"/></g>
<g><path style="opacity:1" fill="#1cc8e5" d="M 441.5,254.5 C 447.833,254.5 454.167,254.5 460.5,254.5C 460.5,263.5 460.5,272.5 460.5,281.5C 454.167,281.5 447.833,281.5 441.5,281.5C 441.5,272.5 441.5,263.5 441.5,254.5 Z"/></g>
<g><path style="opacity:1" fill="#a28424" d="M 460.5,297.5 C 454.167,297.5 447.833,297.5 441.5,297.5C 386.5,297.5 331.5,297.5 276.5,297.5C 276.5,339.167 276.5,380.833 276.5,422.5C 275.501,380.67 275.168,338.67 275.5,296.5C 337.336,296.168 399.002,296.501 460.5,297.5 Z"/></g>
<g><path style="opacity:1" fill="#fecf38" d="M 441.5,297.5 C 441.5,339.167 441.5,380.833 441.5,422.5C 432.494,422.334 423.494,422.5 414.5,423C 411.211,424.41 409.544,426.91 409.5,430.5C 404.5,430.5 399.5,430.5 394.5,430.5C 394.456,426.91 392.789,424.41 389.5,423C 351.835,422.5 314.168,422.333 276.5,422.5C 276.5,380.833 276.5,339.167 276.5,297.5C 331.5,297.5 386.5,297.5 441.5,297.5 Z"/></g>
<g><path style="opacity:1" fill="#feae46" d="M 441.5,297.5 C 447.833,297.5 454.167,297.5 460.5,297.5C 460.5,339.167 460.5,380.833 460.5,422.5C 454.167,422.5 447.833,422.5 441.5,422.5C 441.5,380.833 441.5,339.167 441.5,297.5 Z"/></g>
<g><path style="opacity:1" fill="#27bfdb" d="M 166.5,322.5 C 172.833,322.5 179.167,322.5 185.5,322.5C 185.5,328.5 185.5,334.5 185.5,340.5C 184.079,345.09 181.079,348.256 176.5,350C 145.664,350.831 114.997,350.664 84.5,349.5C 110.842,349.833 137.175,349.5 163.5,348.5C 164.792,346.333 165.625,344 166,341.5C 166.5,335.175 166.666,328.842 166.5,322.5 Z"/></g>
<g><path style="opacity:1" fill="#19889c" d="M 159.5,321.5 C 168.5,321.5 177.5,321.5 186.5,321.5C 186.823,328.022 186.49,334.355 185.5,340.5C 185.5,334.5 185.5,328.5 185.5,322.5C 179.167,322.5 172.833,322.5 166.5,322.5C 163.941,322.802 161.607,322.468 159.5,321.5 Z"/></g>
<g><path style="opacity:1" fill="#060401" d="M 316.5,332.5 C 350.835,332.333 385.168,332.5 419.5,333C 424.626,335.553 425.793,339.386 423,344.5C 422.097,345.701 420.931,346.535 419.5,347C 385.167,347.667 350.833,347.667 316.5,347C 311.235,342.076 311.235,337.242 316.5,332.5 Z"/></g>
<g><path style="opacity:1" fill="#dedede" d="M 138.5,365.5 C 135.224,374.996 131.557,384.33 127.5,393.5C 123.555,394.491 119.555,394.824 115.5,394.5C 111.841,385.195 108.175,375.862 104.5,366.5C 115.814,365.501 127.147,365.168 138.5,365.5 Z"/></g>
<g><path style="opacity:1" fill="#c8c8c8" d="M 138.5,365.5 C 144.842,365.334 151.175,365.5 157.5,366C 153.128,375.577 149.461,385.41 146.5,395.5C 135.986,395.828 125.653,395.494 115.5,394.5C 119.555,394.824 123.555,394.491 127.5,393.5C 131.557,384.33 135.224,374.996 138.5,365.5 Z"/></g>
<g><path style="opacity:1" fill="#040200" d="M 316.5,367.5 C 350.835,367.333 385.168,367.5 419.5,368C 424.626,370.553 425.793,374.386 423,379.5C 421.829,380.893 420.329,381.727 418.5,382C 384.5,382.667 350.5,382.667 316.5,382C 311.235,377.076 311.235,372.242 316.5,367.5 Z"/></g>
<g><path style="opacity:1" fill="#9f9f9f" d="M 125.5,410.5 C 128.167,410.5 130.833,410.5 133.5,410.5C 133.833,434.509 133.5,458.509 132.5,482.5C 130.424,484.288 128.257,485.954 126,487.5C 125.5,461.835 125.333,436.169 125.5,410.5 Z"/></g>
<g><path style="opacity:1" fill="#6ad9fb" d="M 394.5,430.5 C 399.5,430.5 404.5,430.5 409.5,430.5C 409.839,433.669 411.505,435.836 414.5,437C 423.494,437.5 432.494,437.666 441.5,437.5C 441.667,453.503 441.5,469.503 441,485.5C 440.105,488.951 438.938,492.284 437.5,495.5C 386.499,495.667 335.499,495.5 284.5,495C 280.333,493.5 277.5,490.667 276,486.5C 275.5,470.17 275.333,453.837 275.5,437.5C 313.501,437.667 351.501,437.5 389.5,437C 392.493,435.841 394.16,433.675 394.5,430.5 Z"/></g>
<g><path style="opacity:1" fill="#1cc7e4" d="M 441.5,437.5 C 447.833,437.5 454.167,437.5 460.5,437.5C 460.958,454.903 460.458,472.236 459,489.5C 457.039,492.135 454.539,493.969 451.5,495C 446.845,495.499 442.179,495.666 437.5,495.5C 438.938,492.284 440.105,488.951 441,485.5C 441.5,469.503 441.667,453.503 441.5,437.5 Z"/></g>
</svg>
